<?xml version="1.0" encoding="utf-8"?>
<!-- Generator: Adobe Illustrator 23.0.1, SVG Export Plug-In . SVG Version: 6.00 Build 0)  -->
<svg version="1.1" id="svg" xmlns="http://www.w3.org/2000/svg" xmlns:xlink="http://www.w3.org/1999/xlink" x="0px" y="0px"
	 viewBox="0 0 400 89.9" style="enable-background:new 0 0 400 89.9;" xml:space="preserve">
<style type="text/css">
	.st0{fill:url(#SVGID_1_);}
	.st1{fill:url(#SVGID_2_);}
	.st2{fill:#FFFFFF;}
</style>
<g>
	
		<linearGradient id="SVGID_1_" gradientUnits="userSpaceOnUse" x1="23.6" y1="45.4" x2="50.8623" y2="45.4" gradientTransform="matrix(1 0 0 -1 0 92)">
		<stop  offset="0.2022" style="stop-color:#8BC53F"/>
		<stop  offset="0.421" style="stop-color:#9BCB45"/>
		<stop  offset="0.8448" style="stop-color:#C3D955"/>
		<stop  offset="1" style="stop-color:#D4DF5B"/>
	</linearGradient>
	<path class="st0" d="M37.7,31.7c7.4,0,13.1,6,13.1,14.3c0,0.7,0,1.3-0.1,2c0,0.5,0,0.8-0.5,1.3c-0.3,0.3-1.2,0.3-1.2,0.3H30.9
		c0,4.1,3.6,6.1,9.5,6.1c2.3,0,5.2-0.4,7.7-0.9c0.1,0,0.9-0.2,1.4,0.1c0.5,0.4,0.5,1.2,0.5,1.2l-0.5,2.7c0,0-0.1,0.8-0.4,1.2
		c-0.4,0.5-1.2,0.7-1.4,0.8c-2.2,0.4-4.9,0.7-7.8,0.7c-10.5,0-16.3-4.9-16.3-14.8C23.6,37.3,30.3,31.7,37.7,31.7z M30.9,44.6h12.9
		v-0.2c0-4-2.4-6.4-6.4-6.4C33.5,38,31.2,40.4,30.9,44.6z"/>
	
		<linearGradient id="SVGID_2_" gradientUnits="userSpaceOnUse" x1="4.225" y1="47.1917" x2="70.6373" y2="47.1917" gradientTransform="matrix(1 0 0 -1 0 92)">
		<stop  offset="0.2022" style="stop-color:#8BC53F"/>
		<stop  offset="0.421" style="stop-color:#9BCB45"/>
		<stop  offset="0.8448" style="stop-color:#C3D955"/>
		<stop  offset="1" style="stop-color:#D4DF5B"/>
	</linearGradient>
	<path class="st1" d="M12.5,65.3c-0.2,0.1-0.4,0.2-0.6,0.2c-0.3,0-0.6-0.1-0.8-0.4c-0.3-0.4-0.3-1,0.1-1.4c4.3-3.5,5.7-7.2,4.9-16.2
		c-0.7-7.9,2.1-14.6,7.9-19.2c0.4-0.3,1-0.3,1.4,0.1c0.3,0.4,0.3,1-0.1,1.4c-5.2,4.2-7.8,10.3-7.2,17.3C19,57,17.5,61.3,12.5,65.3z
		 M14.2,45.1c0-0.5-0.5-1-1-0.9c-0.5,0-0.9,0.5-0.9,1c0.1,1.3,0.7,6.4,0.3,8.6c-0.4,2.7-1.4,4.9-3.6,6.7c-0.4,0.3-0.5,1-0.1,1.4
		c0.2,0.2,0.5,0.3,0.7,0.3s0.4-0.1,0.6-0.2c2.5-2.2,3.9-5,4.3-8.2C14.9,51.7,14.2,46.2,14.2,45.1z M33.2,24.1
		c-1.6,0.3-3.2,0.8-4.6,1.5c-0.5,0.2-0.7,0.8-0.5,1.3s0.8,0.7,1.3,0.5c1.3-0.6,2.8-1.1,4.2-1.4c5.7-1.1,11.5,0.3,16,4
		c0.2,0.1,0.4,0.2,0.6,0.2c0.3,0,0.6-0.1,0.7-0.4c0.3-0.4,0.3-1-0.1-1.4C45.8,24.4,39.4,22.8,33.2,24.1z M21.5,59.6
		c0.2-0.5-0.1-1.1-0.5-1.2c-0.5-0.2-1.1,0.1-1.2,0.5c-1.2,3.1-3.2,5.8-5.8,7.9c-0.4,0.3-0.5,0.9-0.1,1.4c0.2,0.2,0.5,0.4,0.7,0.4
		s0.4-0.1,0.6-0.2C18,66,20.2,63,21.5,59.6z M10.8,26.6c0.2,0.1,0.4,0.2,0.6,0.2c0.3,0,0.6-0.1,0.8-0.4c4.6-6.3,11.4-10.7,19.1-12.2
		c6.8-1.4,13.7-0.5,19.9,2.6c0.5,0.2,1.1,0,1.3-0.4c0.2-0.5,0-1.1-0.4-1.3c-6.6-3.2-13.9-4.2-21.2-2.7c-8.2,1.6-15.3,6.2-20.2,13
		C10.3,25.6,10.4,26.2,10.8,26.6z M7.1,52.3C7,51.9,6.9,51.4,6.8,51v-0.1c-1.4-7-0.4-14,2.8-20.3c0.2-0.5,0.1-1.1-0.4-1.3
		c-0.5-0.2-1.1-0.1-1.3,0.4c-3.5,6.7-4.5,14.2-3,21.7v0.1c0.1,0.4,0.2,0.9,0.3,1.3c0.1,0.4,0.5,0.7,0.9,0.7c0.1,0,0.2,0,0.2,0
		C6.9,53.3,7.2,52.8,7.1,52.3z M60.1,40.2l0.1,0.4c0.2,0.9,0.3,1.8,0.5,2.6c0.1,0.5,0.5,0.8,1,0.8h0.1c0.5-0.1,0.9-0.6,0.8-1.1
		c-0.2-1.1-0.3-2.1-0.6-3.2L61.9,39l0,0c-3.1-13.2-16.1-21.7-29.5-19c-5.1,1-9.6,3.5-13.2,7.2c-3.5,3.6-5.8,8.2-6.6,13.1
		c-0.1,0.5,0.3,1,0.8,1.1s1-0.3,1.1-0.8c0.8-4.6,2.9-8.7,6.1-12.1c3.3-3.4,7.5-5.7,12.2-6.7C45.3,19.5,57.6,27.6,60.1,40.2z
		 M10.7,50.2l-0.1-0.5c-1.3-7,0.2-14,4.1-20c4-6.1,10.2-10.2,17.3-11.6c3-0.6,6-0.7,9-0.3c0.5,0.1,1-0.3,1.1-0.8s-0.3-1-0.8-1.1
		c-3.2-0.4-6.5-0.3-9.7,0.3c-7.6,1.5-14.2,6-18.5,12.5S7.3,43,8.8,50.6l0.1,0.3c0.3,2.1-0.3,4.3-1.8,6c-0.4,0.4-0.3,1,0.1,1.4
		c0.2,0.2,0.4,0.3,0.7,0.3s0.5-0.1,0.7-0.3C10.4,56,11.3,53,10.7,50.2z M58,40.3L58,40.3c-0.6-2.9-1.8-5.5-3.6-7.9
		c-0.3-0.4-0.9-0.5-1.3-0.2c-0.4,0.3-0.5,0.9-0.2,1.3c1.6,2.2,2.7,4.8,3.3,7.5v0.2c2,10.3,1.1,20.8-2.6,30.5
		c-0.2,0.5,0.1,1.1,0.6,1.2c0.1,0,0.2,0.1,0.3,0.1c0.4,0,0.8-0.2,0.9-0.6c3.9-10.1,4.8-21.1,2.6-31.8V40.3z M52.7,64.6
		c-0.5-0.1-1,0.2-1.2,0.7c-0.8,3.2-2,6.3-3.4,9.2c-0.2,0.5,0,1.1,0.4,1.3c0.1,0.1,0.3,0.1,0.4,0.1c0.4,0,0.7-0.2,0.9-0.5
		c1.5-3.1,2.7-6.3,3.6-9.6C53.5,65.2,53.2,64.7,52.7,64.6z M32.2,62.8c-0.5-0.2-1.1,0.1-1.2,0.5c-1.5,4-3.8,7.5-6.8,10.5
		c-0.4,0.4-0.4,1,0,1.4c0.2,0.2,0.4,0.3,0.7,0.3c0.3,0,0.5-0.1,0.7-0.3c3.1-3.2,5.6-7,7.2-11.2C33,63.5,32.7,63,32.2,62.8z
		 M62.1,47.3c-0.5,0-0.9,0.5-0.9,1c0.4,6.4-0.2,12.8-1.9,19c-0.1,0.5,0.2,1,0.7,1.2c0.1,0,0.2,0,0.2,0c0.4,0,0.8-0.3,0.9-0.7
		c1.7-6.4,2.4-13,1.9-19.6C63.1,47.6,62.6,47.2,62.1,47.3z M65.8,38.2L65.8,38.2c-2.3-10-9.7-18.1-19.5-21.2c-0.5-0.2-1,0.1-1.2,0.6
		s0.1,1.1,0.6,1.2c9.4,3,16.5,10.9,18.4,20.6l0.1,0.6c1.3,6.6,1.5,13.3,0.7,19.9c-0.1,0.5,0.3,1,0.8,1.1h0.1c0.5,0,0.9-0.4,1-0.8
		c0.9-7,0.6-14.1-0.8-21L65.8,38.2z M69.9,38.2c0-0.1,0-0.1-0.1-0.2c-1.7-8.3-6.5-15.5-13.4-20.4c-0.4-0.3-1-0.2-1.3,0.2
		c-0.3,0.4-0.2,1,0.2,1.3c6.6,4.6,11.1,11.5,12.7,19.4v0.1c0.4,2.2,0.6,4.5,0.6,6.7c0,0.5,0.4,1,0.9,1l0,0c0.5,0,1-0.4,1-0.9
		C70.6,43,70.4,40.6,69.9,38.2z M54.5,60.6c1-6.2,0.9-12.4-0.2-18.6l0,0l-0.1-0.6C52.3,32.2,43.2,26.2,34,28
		c-6.9,1.4-12.3,6.9-13.5,13.5c-0.9,4.7,0.2,10.7,0,12.8c0,0.5,0.3,1,0.9,1.1c0.5,0.1,1-0.3,1.1-0.9c0.2-2.1-1-8.4-0.1-12.5
		c1.3-5.9,5.9-10.9,12.1-12.1c8.1-1.6,16,3.6,17.8,11.6l0.1,0.3c1.2,6.1,1.4,12.4,0.3,18.5c-0.1,0.5,0.3,1,0.8,1.1
		c0.1,0,0.1,0,0.2,0C54,61.4,54.4,61.1,54.5,60.6z M26,58.7c0-0.5-0.4-1-1-1c-0.5,0-0.8,0.3-0.9,0.7l0,0c-1.2,4.2-3.6,8.1-7.1,11.1
		c-0.4,0.3-0.4,1-0.1,1.4c0.2,0.2,0.5,0.3,0.7,0.3s0.4-0.1,0.6-0.2C22.1,67.7,24.7,63.5,26,58.7L26,58.7C26,58.8,26,58.7,26,58.7z
		 M29.3,61.7c0-0.5-0.4-1-1-1c-0.4,0-0.8,0.3-0.9,0.7l0,0c-1.5,3.9-3.8,7.5-6.9,10.5c-0.4,0.4-0.4,1,0,1.4c0.2,0.2,0.4,0.3,0.7,0.3
		c0.2,0,0.5-0.1,0.7-0.3c3.3-3.1,5.9-7,7.4-11.1C29.2,62,29.3,61.9,29.3,61.7z M49.6,64.1L49.6,64.1L49.6,64.1c0-0.6-0.4-1.1-1-1.1
		c-0.5,0-0.9,0.4-1,0.9c-1.1,4.2-2.8,8.3-5,12.1c-0.3,0.5-0.1,1,0.3,1.3c0.2,0.1,0.3,0.1,0.5,0.1c0.3,0,0.7-0.2,0.8-0.5
		c2.3-4,4-8.2,5.2-12.6C49.6,64.3,49.6,64.2,49.6,64.1L49.6,64.1z M36.8,64.9L36.8,64.9c0-0.1,0.1-0.2,0.1-0.3c0-0.5-0.4-1-1-1
		c-0.4,0-0.8,0.3-0.9,0.6l0,0c-1.5,4-3.7,7.8-6.6,11.1c-0.4,0.4-0.3,1,0.1,1.4c0.2,0.2,0.4,0.2,0.6,0.2c0.3,0,0.5-0.1,0.7-0.3
		c3.1-3.5,5.4-7.4,6.9-11.6C36.7,65,36.8,64.9,36.8,64.9L36.8,64.9z M41,64.7c0-0.5-0.4-1-1-1c-0.4,0-0.8,0.3-0.9,0.6l0,0
		c-1.4,4.2-3.5,8.2-6.3,11.8c-0.3,0.4-0.3,1,0.2,1.4c0.2,0.1,0.4,0.2,0.6,0.2c0.3,0,0.6-0.1,0.8-0.4c2.9-3.7,5.1-7.9,6.6-12.3
		C41,65,41,64.9,41,64.7z M45.3,64.4c0-0.5-0.4-1-1-1c-0.4,0-0.8,0.3-0.9,0.6l0,0c-1.3,4.4-3.3,8.6-5.8,12.4c-0.3,0.4-0.2,1,0.3,1.3
		c0.2,0.1,0.4,0.2,0.5,0.2c0.3,0,0.6-0.1,0.8-0.4c2.7-3.9,4.7-8.2,6-12.7C45.3,64.7,45.3,64.6,45.3,64.4z"/>
</g>
<g>
	<g>
		<path class="st2" d="M94.6,15.5c6.3,0,9.4,3.2,9.4,9.6c0,0.9-0.1,1.7-0.2,2.6H90.1c0,2.9,2.1,4.4,6.4,4.4c2.1,0,4.2-0.2,6.3-0.6
			v4.1c-1.8,0.4-4.1,0.6-6.7,0.6c-7.5,0-11.3-3.5-11.3-10.6C84.9,18.9,88.1,15.5,94.6,15.5z M90.1,24h8.8v-0.2
			c0-2.9-1.4-4.3-4.3-4.3C91.8,19.6,90.3,21.1,90.1,24z"/>
		<path class="st2" d="M114.9,23.8v4.1h-8.2v-4.1H114.9z"/>
		<path class="st2" d="M117.5,36.2V15.5h4l0.7,3c2-2,4.2-3,6.8-3c4.9,0,7.4,2.6,7.4,7.7v13.1h-5.2V23.1c0-2.3-1.1-3.4-3.4-3.4
			c-1.7,0-3.4,0.7-5,2v14.5H117.5z"/>
		<path class="st2" d="M139.4,25.8c0-6.9,3.4-10.4,10.3-10.4c6.8,0,10.3,3.5,10.3,10.4s-3.4,10.4-10.3,10.4
			C142.9,36.2,139.5,32.8,139.4,25.8z M149.7,32.3c3.4,0,5-2.2,5-6.5c0-4.2-1.7-6.3-5-6.3c-3.4,0-5,2.1-5,6.3
			C144.7,30.1,146.3,32.3,149.7,32.3z"/>
		<path class="st2" d="M162.8,12.1h3.9l0.8,3.4h5.2v4.1H168v9.5c0,1.9,0.8,2.9,2.5,2.9h2.1v4.1H168c-3.5,0-5.2-1.9-5.2-5.6V12.1z"/>
		<path class="st2" d="M174.4,29.7c0-4.1,3-6.2,9-6.2c1.4,0,2.8,0.1,4.2,0.4v-1.6c0-1.9-1.3-2.8-4-2.8c-2.3,0-4.8,0.3-7.5,1v-4.1
			c2.8-0.7,5.3-1,7.5-1c6.2,0,9.2,2.3,9.2,6.8v13.9h-3l-1.9-1.9c-1.8,1.2-3.8,1.9-6,1.9C177,36.2,174.4,34,174.4,29.7z M183.4,27.1
			c-2.5,0-3.8,0.9-3.8,2.6c0,1.8,1.1,2.8,3.2,2.8c1.7,0,3.3-0.5,4.8-1.6v-3.3C186.3,27.3,184.9,27.1,183.4,27.1z"/>
		<path class="st2" d="M197,36.2V15.5h4l0.7,2.6c1.8-1.8,3.7-2.6,5.8-2.6v4.2c-1.9,0-3.7,0.8-5.2,2.4v14.1H197z"/>
		<path class="st2" d="M214.8,8v4.1h-5.2V8H214.8z M214.8,15.5v20.7h-5.2V15.5H214.8z"/>
		<path class="st2" d="M218,29.7c0-4.1,3-6.2,9-6.2c1.4,0,2.8,0.1,4.2,0.4v-1.6c0-1.9-1.3-2.8-4-2.8c-2.3,0-4.8,0.3-7.5,1v-4.1
			c2.8-0.7,5.3-1,7.5-1c6.2,0,9.2,2.3,9.2,6.8v13.9h-3l-1.9-1.9c-1.8,1.2-3.8,1.9-6,1.9C220.5,36.2,218,34,218,29.7z M227,27.1
			c-2.5,0-3.8,0.9-3.8,2.6c0,1.8,1.1,2.8,3.2,2.8c1.7,0,3.3-0.5,4.8-1.6v-3.3C229.9,27.3,228.5,27.1,227,27.1z"/>
		<path class="st2" d="M258.9,35c-3.2,0.8-6.3,1.2-9.3,1.2c-6.7,0-10-3.6-10-10.8c0-6.6,3.3-9.9,9.8-9.9c1.4,0,2.8,0.3,4.3,1V8h5.2
			V35z M253.7,20.9c-1.1-0.7-2.4-1.1-4.1-1.1c-3.2,0-4.9,1.8-4.9,5.5c0,4.3,1.7,6.5,5.1,6.5c1.4,0,2.7-0.2,3.9-0.6V20.9z"/>
		<path class="st2" d="M262,25.8c0-6.9,3.4-10.4,10.3-10.4c6.8,0,10.3,3.5,10.3,10.4s-3.4,10.4-10.3,10.4
			C265.5,36.2,262.1,32.8,262,25.8z M272.3,32.3c3.4,0,5-2.2,5-6.5c0-4.2-1.7-6.3-5-6.3c-3.4,0-5,2.1-5,6.3
			C267.3,30.1,268.9,32.3,272.3,32.3z"/>
	</g>
	<g>
		<path class="st2" d="M85.5,81.5V47.7h10c3.6,0,6.4,0.7,8.2,2.2c1.9,1.5,2.8,3.7,2.8,6.6c0,1.7-0.5,3.3-1.4,4.6
			c-1,1.3-2.3,2.2-3.9,2.8c2,0.4,3.5,1.4,4.7,2.9s1.8,3.2,1.8,5.2c0,3-1,5.3-2.9,7s-4.6,2.5-8,2.5C96.8,81.5,85.5,81.5,85.5,81.5z
			 M88.3,62.9h7.8c2.4,0,4.2-0.6,5.5-1.7c1.3-1.1,2-2.6,2-4.7c0-2.2-0.7-3.8-2-4.8c-1.4-1-3.4-1.5-6.1-1.5h-7.1v12.7H88.3z
			 M88.3,65.3v13.8h8.6c2.4,0,4.4-0.6,5.8-1.9c1.4-1.2,2.1-3,2.1-5.2c0-2.1-0.7-3.7-2.1-4.9c-1.4-1.2-3.3-1.8-5.7-1.8H88.3z"/>
		<path class="st2" d="M121.2,79.1h16.7v2.4h-19.5V47.7h2.9L121.2,79.1L121.2,79.1z"/>
		<path class="st2" d="M170.6,66.5c0,3.1-0.5,5.8-1.6,8.2c-1.1,2.3-2.6,4.2-4.6,5.4c-2,1.3-4.3,1.9-6.9,1.9c-3.9,0-7.1-1.4-9.5-4.2
			c-2.4-2.8-3.6-6.6-3.6-11.4v-3.5c0-3.1,0.5-5.8,1.6-8.2s2.6-4.2,4.6-5.5s4.3-1.9,6.9-1.9c2.6,0,4.9,0.6,6.9,1.9
			c2,1.3,3.5,3,4.6,5.3s1.6,4.9,1.7,8L170.6,66.5L170.6,66.5z M167.7,62.8c0-4.1-0.9-7.2-2.8-9.5c-1.8-2.3-4.4-3.5-7.6-3.5
			c-3.1,0-5.6,1.2-7.5,3.5S147,58.8,147,63v3.5c0,4,0.9,7.2,2.8,9.5c1.9,2.3,4.4,3.5,7.6,3.5c3.2,0,5.7-1.2,7.6-3.5
			c1.8-2.3,2.7-5.5,2.7-9.7V62.8z"/>
		<path class="st2" d="M205.5,71c-0.4,3.6-1.7,6.3-3.8,8.2c-2.2,1.9-5,2.8-8.6,2.8c-2.5,0-4.7-0.6-6.6-1.9c-1.9-1.3-3.4-3-4.5-5.3
			s-1.6-4.9-1.6-7.9v-4.4c0-3,0.5-5.7,1.6-8s2.6-4.1,4.5-5.4c2-1.3,4.2-1.9,6.8-1.9c3.6,0,6.5,1,8.6,2.9s3.3,4.6,3.7,8.1h-2.9
			c-0.7-5.7-3.8-8.6-9.3-8.6c-3.1,0-5.5,1.1-7.3,3.4c-1.8,2.3-2.7,5.5-2.7,9.5v4.1c0,3.9,0.9,7,2.7,9.3s4.2,3.5,7.2,3.5
			s5.2-0.7,6.7-2.1s2.4-3.6,2.8-6.4h2.7V71z"/>
		<path class="st2" d="M223.8,64.7l-4.8,4.7v12.1h-2.9V47.7h2.9v18.2l17.3-18.2h3.6l-14.1,15L241,81.5h-3.5L223.8,64.7z"/>
		<path class="st2" d="M273.1,71c-0.4,3.6-1.7,6.3-3.8,8.2c-2.2,1.9-5,2.8-8.6,2.8c-2.5,0-4.7-0.6-6.6-1.9s-3.4-3-4.5-5.3
			s-1.6-4.9-1.6-7.9v-4.4c0-3,0.5-5.7,1.6-8s2.6-4.1,4.5-5.4c2-1.3,4.2-1.9,6.8-1.9c3.6,0,6.5,1,8.6,2.9s3.3,4.6,3.7,8.1h-2.9
			c-0.7-5.7-3.8-8.6-9.3-8.6c-3.1,0-5.5,1.1-7.3,3.4c-1.8,2.3-2.7,5.5-2.7,9.5v4.1c0,3.9,0.9,7,2.7,9.3s4.2,3.5,7.2,3.5
			s5.2-0.7,6.7-2.1s2.4-3.6,2.8-6.4h2.7V71z"/>
		<path class="st2" d="M308.8,81.5H306V65.3h-19.3v16.2h-2.9V47.7h2.9v15.2H306V47.7h2.9v33.8H308.8z"/>
		<path class="st2" d="M339.9,72h-15.3l-3.5,9.5h-3l12.8-33.7h2.7l12.8,33.7h-3L339.9,72z M325.4,69.6H339l-6.8-18.4L325.4,69.6z"/>
		<path class="st2" d="M358.6,81.5h-2.9V47.7h2.9V81.5z"/>
		<path class="st2" d="M396.6,81.5h-2.9l-19.4-28.9v28.9h-2.9V47.7h2.9l19.4,28.9V47.7h2.8v33.8H396.6z"/>
	</g>
</g>
</svg>
